<svg width="152" height="152" viewBox="0 0 152 152" fill="none" xmlns="http://www.w3.org/2000/svg">
<path d="M126.667 101.334V63.3337H139.334V101.334C139.334 104.693 137.999 107.915 135.624 110.29C133.248 112.666 130.026 114 126.667 114H50.667C43.637 114 38.0003 108.3 38.0003 101.334V25.3337C38.0003 18.3037 43.637 12.667 50.667 12.667H101.334V25.3337H50.667V101.334H126.667ZM69.097 44.8403L88.667 64.4103L130.404 22.6737L139.334 31.667L88.667 82.3337L60.167 53.8337L69.097 44.8403ZM101.334 126.667V139.334H25.3337C21.9742 139.334 18.7524 137.999 16.377 135.624C14.0015 133.248 12.667 130.026 12.667 126.667V44.3337H25.3337V126.667H101.334Z" fill="white"/>
</svg>
